<svg width="25" height="24" viewBox="0 0 25 24" fill="none" xmlns="http://www.w3.org/2000/svg">
<g clip-path="url(#clip0_2430_56457)">
<path d="M21.4927 17.9846L19.7357 15.0226C19.6922 14.9488 19.6563 14.8707 19.6287 14.7896C19.3913 14.0936 19.2219 13.3763 19.1227 12.6476L18.3227 8.54762C17.7357 6.05762 16.2287 4.19462 13.7907 3.76262C13.7012 3.53744 13.5462 3.3443 13.3457 3.20822C13.1452 3.07214 12.9085 2.99939 12.6662 2.99939C12.4239 2.99939 12.1871 3.07214 11.9867 3.20822C11.7862 3.3443 11.6311 3.53744 11.5417 3.76262C9.10168 4.19962 7.60168 6.05862 7.01268 8.54662L6.24268 12.5536C6.1437 13.3024 5.97017 14.0394 5.72468 14.7536C5.69618 14.8334 5.66036 14.9104 5.61768 14.9836L3.84068 17.9836C3.37968 18.7616 3.88268 19.7836 4.78968 19.8426C4.82068 19.8426 4.85068 19.8426 4.88168 19.8426H10.6017C10.8188 20.1952 11.1225 20.4863 11.484 20.6883C11.8455 20.8902 12.2526 20.9962 12.6667 20.9962C13.0807 20.9962 13.4879 20.8902 13.8494 20.6883C14.2108 20.4863 14.5146 20.1952 14.7317 19.8426H20.4517C20.4827 19.8426 20.5147 19.8426 20.5447 19.8426C21.4507 19.7826 21.9537 18.7616 21.4927 17.9846ZM14.9557 17.8456H6.26068L7.35268 15.9996C7.46547 15.8096 7.55862 15.6085 7.63068 15.3996C7.91187 14.5776 8.11281 13.7303 8.23068 12.8696L8.98168 8.96062C9.23668 7.90662 9.68968 7.06062 10.2937 6.50162C10.8977 5.94262 11.6857 5.66162 12.6647 5.66162C13.6437 5.66162 14.4197 5.93662 15.0357 6.50162C15.6517 7.06662 16.0937 7.90762 16.3487 8.96462L17.1347 12.9716C17.2522 13.8065 17.4481 14.6285 17.7197 15.4266C17.7923 15.6384 17.8865 15.8421 18.0007 16.0346L19.0727 17.8416L14.9557 17.8456Z" fill="#D4A969"/>
</g>
<defs>
<clipPath id="clip0_2430_56457">
<rect width="18" height="18" fill="white" transform="translate(3.66675 3)"/>
</clipPath>
</defs>
</svg>
