<svg width="24" height="24" viewBox="0 0 24 24" fill="none" xmlns="http://www.w3.org/2000/svg">
<path fill-rule="evenodd" clip-rule="evenodd" d="M12 2.25C6.61522 2.25 2.25 6.61522 2.25 12C2.25 17.3848 6.61522 21.75 12 21.75C17.3848 21.75 21.75 17.3848 21.75 12C21.75 6.61522 17.3848 2.25 12 2.25ZM0.75 12C0.75 5.7868 5.7868 0.75 12 0.75C18.2132 0.75 23.25 5.7868 23.25 12C23.25 18.2132 18.2132 23.25 12 23.25C5.7868 23.25 0.75 18.2132 0.75 12Z" fill="#333333"/>
<path fill-rule="evenodd" clip-rule="evenodd" d="M12 8.25C10.3431 8.25 9 9.59315 9 11.25C9 12.9069 10.3431 14.25 12 14.25C13.6569 14.25 15 12.9069 15 11.25C15 9.59315 13.6569 8.25 12 8.25ZM7.5 11.25C7.5 8.76472 9.51472 6.75 12 6.75C14.4853 6.75 16.5 8.76472 16.5 11.25C16.5 13.7353 14.4853 15.75 12 15.75C9.51472 15.75 7.5 13.7353 7.5 11.25Z" fill="#333333"/>
<path fill-rule="evenodd" clip-rule="evenodd" d="M12.0001 15.75C10.5824 15.75 9.19337 16.1339 7.98695 16.8577C6.78066 17.5815 5.80486 18.6164 5.1656 19.846C4.97453 20.2135 4.52171 20.3565 4.1542 20.1654C3.78668 19.9744 3.64365 19.5216 3.83471 19.154C4.6034 17.6755 5.77409 16.4362 7.21521 15.5715C8.6562 14.7069 10.3122 14.25 12.0001 14.25C13.6881 14.25 15.3441 14.7069 16.7851 15.5715C18.2262 16.4361 19.3969 17.6755 20.1656 19.154C20.3567 19.5215 20.2136 19.9743 19.8461 20.1654C19.4786 20.3565 19.0258 20.2134 18.8347 19.8459C18.1954 18.6163 17.2196 17.5815 16.0133 16.8577C14.8069 16.1339 13.4179 15.75 12.0001 15.75Z" fill="#333333"/>
</svg>
