<svg width="24" height="24" viewBox="0 0 24 24" fill="none" xmlns="http://www.w3.org/2000/svg">
<path d="M12 22C17.5228 22 22 17.5228 22 12C22 6.47715 17.5228 2 12 2C6.47715 2 2 6.47715 2 12C2 17.5228 6.47715 22 12 22Z" fill="#999999"/>
<path d="M13.3251 12L16.7687 8.56543C16.9243 8.38904 17.0068 8.16022 16.9996 7.92537C16.9923 7.69053 16.8957 7.46723 16.7294 7.30077C16.5632 7.13431 16.3397 7.03715 16.1043 7.02898C15.8688 7.02081 15.6391 7.10225 15.4616 7.25679L12.0131 10.6964L8.56952 7.25679C8.39425 7.08954 8.16029 6.99738 7.91774 7.00006C7.67519 7.00273 7.44333 7.10002 7.27181 7.2711C7.10028 7.44217 7.00274 7.67343 7.00006 7.91535C6.99737 8.15727 7.08977 8.39062 7.25746 8.56543L10.706 12L7.25746 15.4346C7.08977 15.6094 6.99737 15.8427 7.00006 16.0847C7.00274 16.3266 7.10028 16.5578 7.27181 16.7289C7.44333 16.9 7.67519 16.9973 7.91774 16.9999C8.16029 17.0026 8.39425 16.9105 8.56952 16.7432L12.0131 13.3086L15.4566 16.7432C15.6341 16.8977 15.8638 16.9792 16.0992 16.971C16.3347 16.9629 16.5582 16.8657 16.7244 16.6992C16.8907 16.5328 16.9872 16.3095 16.9945 16.0746C17.0018 15.8398 16.9193 15.611 16.7637 15.4346L13.3251 12Z" fill="white"/>
</svg>
