<svg width="24" height="24" viewBox="0 0 24 24" fill="none" xmlns="http://www.w3.org/2000/svg">
<path d="M18.2687 12.712C19.772 12.7166 20.9908 13.9571 21 15.4917V18.2117C20.9909 19.7478 19.7733 20.9907 18.2687 21H15.6042C14.1009 20.9906 12.8858 19.7464 12.8812 18.2117V15.4917C12.8812 13.9565 14.1003 12.712 15.6042 12.712H18.2687ZM6.82552 12.712C7.10529 12.6814 7.3776 12.8166 7.52686 13.0601C7.67611 13.3035 7.67611 13.6126 7.52686 13.8561C7.3776 14.0996 7.10529 14.2348 6.82552 14.2042H5.73132C5.03339 14.2042 4.46631 14.7793 4.46172 15.4917V18.1777C4.47946 18.8844 5.0389 19.4517 5.73132 19.4652H8.41253C8.74848 19.4675 9.07143 19.3328 9.30977 19.0911C9.54811 18.8494 9.68214 18.5206 9.68213 18.1777V14.1445L9.67073 14.0442C9.65813 13.7773 9.78612 13.5203 10.0113 13.3745C10.2647 13.2105 10.5903 13.2202 10.834 13.399C11.0776 13.5777 11.1903 13.8897 11.1188 14.1871V18.2032C11.1188 19.7431 9.89594 20.9915 8.38747 20.9915H5.73132C4.23589 20.9598 3.03103 19.7298 3 18.2032V15.4917C3 14.753 3.28803 14.0447 3.80049 13.5231C4.31295 13.0016 5.0077 12.7097 5.73132 12.712H6.82552ZM18.2687 14.2042H15.6042C14.9076 14.2042 14.3429 14.7806 14.3429 15.4917V18.2117C14.3407 18.5539 14.4728 18.8827 14.7099 19.1247C14.9469 19.3667 15.269 19.5016 15.6042 19.4993H18.2687C18.6039 19.5016 18.926 19.3667 19.163 19.1247C19.4 18.8827 19.5322 18.5539 19.53 18.2117V15.4917C19.53 15.1502 19.397 14.8227 19.1605 14.5813C18.924 14.3398 18.6032 14.2042 18.2687 14.2042ZM18.2687 3C19.7608 3.03617 20.9608 4.26488 20.9916 5.78825V8.49976C21.0006 9.23701 20.7222 9.94767 20.2178 10.4754C19.7134 11.0031 19.0243 11.3046 18.3021 11.3136H17.1995C16.826 11.2728 16.5427 10.951 16.5427 10.5675C16.5427 10.184 16.826 9.86223 17.1995 9.82141H18.2687C18.6069 9.81917 18.9302 9.67928 19.167 9.43277C19.4037 9.18626 19.5344 8.8535 19.5299 8.50829V5.78825C19.5209 5.081 18.9615 4.5099 18.2687 4.50071H15.6042C14.9076 4.50071 14.3429 5.07716 14.3429 5.78825V9.85552L14.3342 9.94904C14.2775 10.3161 13.9643 10.5933 13.5912 10.5888C13.3969 10.5844 13.2125 10.5007 13.0791 10.3565C12.9457 10.2123 12.8745 10.0196 12.8812 9.82141V5.78825C12.879 5.04955 13.1649 4.34032 13.6758 3.81718C14.1867 3.29403 14.8806 3 15.6042 3H18.2687ZM8.39582 3C9.90239 3.00468 11.1226 4.25029 11.1271 5.78825V8.50829C11.1271 9.247 10.8391 9.95533 10.3267 10.4769C9.81419 10.9984 9.11945 11.2903 8.39582 11.288H5.73132C4.228 11.2834 3.00916 10.0429 3 8.50829V5.78825C3.00912 4.25222 4.22665 3.00931 5.73132 3H8.39582ZM8.39582 4.50071H5.73132C5.3925 4.49384 5.06522 4.62645 4.82324 4.86866C4.58126 5.11087 4.44494 5.4423 4.44501 5.78825V8.50829C4.43812 8.85866 4.57143 9.19676 4.81417 9.44456C5.05691 9.69236 5.38811 9.82844 5.73132 9.82141H8.39582C8.73401 9.81917 9.05734 9.67928 9.29411 9.43277C9.53089 9.18626 9.66153 8.8535 9.65708 8.50829V5.78825C9.65252 5.0791 9.0905 4.50536 8.39582 4.50071Z" fill="#333333"/>
</svg>
