<svg width="18" height="18" viewBox="0 0 18 18" fill="none" xmlns="http://www.w3.org/2000/svg">
<path d="M7.20039 14.4C7.43909 14.4 7.668 14.3052 7.83679 14.1364C8.00557 13.9676 8.10039 13.7387 8.10039 13.5V8.1C8.10039 7.8613 8.00557 7.63239 7.83679 7.4636C7.668 7.29482 7.43909 7.2 7.20039 7.2C6.9617 7.2 6.73278 7.29482 6.56399 7.4636C6.39521 7.63239 6.30039 7.8613 6.30039 8.1V13.5C6.30039 13.7387 6.39521 13.9676 6.56399 14.1364C6.73278 14.3052 6.9617 14.4 7.20039 14.4ZM16.2004 3.6H12.6004V2.7C12.6004 1.98392 12.3159 1.29716 11.8096 0.790812C11.3032 0.284464 10.6165 0 9.90039 0H8.10039C7.38431 0 6.69755 0.284464 6.1912 0.790812C5.68485 1.29716 5.40039 1.98392 5.40039 2.7V3.6H1.80039C1.5617 3.6 1.33278 3.69482 1.16399 3.8636C0.995212 4.03239 0.900391 4.2613 0.900391 4.5C0.900391 4.73869 0.995212 4.96761 1.16399 5.1364C1.33278 5.30518 1.5617 5.4 1.80039 5.4H2.70039V15.3C2.70039 16.0161 2.98485 16.7028 3.4912 17.2092C3.99755 17.7155 4.68431 18 5.40039 18H12.6004C13.3165 18 14.0032 17.7155 14.5096 17.2092C15.0159 16.7028 15.3004 16.0161 15.3004 15.3V5.4H16.2004C16.4391 5.4 16.668 5.30518 16.8368 5.1364C17.0056 4.96761 17.1004 4.73869 17.1004 4.5C17.1004 4.2613 17.0056 4.03239 16.8368 3.8636C16.668 3.69482 16.4391 3.6 16.2004 3.6ZM7.20039 2.7C7.20039 2.46131 7.29521 2.23239 7.46399 2.0636C7.63278 1.89482 7.8617 1.8 8.10039 1.8H9.90039C10.1391 1.8 10.368 1.89482 10.5368 2.0636C10.7056 2.23239 10.8004 2.46131 10.8004 2.7V3.6H7.20039V2.7ZM13.5004 15.3C13.5004 15.5387 13.4056 15.7676 13.2368 15.9364C13.068 16.1052 12.8391 16.2 12.6004 16.2H5.40039C5.1617 16.2 4.93278 16.1052 4.76399 15.9364C4.59521 15.7676 4.50039 15.5387 4.50039 15.3V5.4H13.5004V15.3ZM10.8004 14.4C11.0391 14.4 11.268 14.3052 11.4368 14.1364C11.6056 13.9676 11.7004 13.7387 11.7004 13.5V8.1C11.7004 7.8613 11.6056 7.63239 11.4368 7.4636C11.268 7.29482 11.0391 7.2 10.8004 7.2C10.5617 7.2 10.3328 7.29482 10.164 7.4636C9.99521 7.63239 9.90039 7.8613 9.90039 8.1V13.5C9.90039 13.7387 9.99521 13.9676 10.164 14.1364C10.3328 14.3052 10.5617 14.4 10.8004 14.4Z" fill="#E51616"/>
</svg>
