<svg width="24" height="24" viewBox="0 0 24 24" fill="none" xmlns="http://www.w3.org/2000/svg">
<g clip-path="url(#clip0_4595_7010)">
<path d="M12 4.8C13.424 4.8 14.816 5.22227 16.0001 6.01342C17.1841 6.80456 18.107 7.92905 18.6519 9.24468C19.1969 10.5603 19.3394 12.008 19.0616 13.4046C18.7838 14.8013 18.0981 16.0842 17.0911 17.0912C16.0842 18.0981 14.8013 18.7838 13.4046 19.0617C12.008 19.3395 10.5603 19.1969 9.24465 18.6519C7.92902 18.107 6.80454 17.1841 6.01339 16.0001C5.22225 14.8161 4.79997 13.424 4.79997 12C4.80212 10.0911 5.56138 8.261 6.91117 6.9112C8.26097 5.5614 10.0911 4.80214 12 4.8ZM12 3C10.2199 3 8.47988 3.52784 6.99984 4.51677C5.5198 5.50571 4.36625 6.91131 3.68506 8.55585C3.00387 10.2004 2.82564 12.01 3.17291 13.7558C3.52017 15.5016 4.37734 17.1053 5.63601 18.364C6.89469 19.6226 8.49833 20.4798 10.2442 20.8271C11.99 21.1743 13.7996 20.9961 15.4441 20.3149C17.0887 19.6337 18.4943 18.4802 19.4832 17.0001C20.4721 15.5201 21 13.78 21 12C21 9.61305 20.0518 7.32387 18.3639 5.63604C16.6761 3.94821 14.3869 3 12 3V3Z" fill="#E51616"/>
<path d="M16.5054 8.72158L15.3012 7.51648L12.0135 11.2542L8.72671 7.51648L7.52161 8.72158L11.2593 12.0084L7.52161 15.2952L8.72671 16.5003L12.0135 12.7626L15.3012 16.5003L16.5054 15.2952L12.7677 12.0084L16.5054 8.72158Z" fill="#E51616"/>
</g>
<defs>
<clipPath id="clip0_4595_7010">
<rect width="18" height="18" fill="white" transform="translate(3 3)"/>
</clipPath>
</defs>
</svg>
