<svg width="25" height="24" viewBox="0 0 25 24" fill="none" xmlns="http://www.w3.org/2000/svg">
<path d="M20.6 13.8C20.3613 13.8 20.1324 13.8948 19.9636 14.0636C19.7948 14.2324 19.7 14.4613 19.7 14.7V18.3C19.7 18.5387 19.6052 18.7676 19.4364 18.9364C19.2676 19.1052 19.0387 19.2 18.8 19.2H6.2C5.96131 19.2 5.73239 19.1052 5.5636 18.9364C5.39482 18.7676 5.3 18.5387 5.3 18.3V14.7C5.3 14.4613 5.20518 14.2324 5.0364 14.0636C4.86761 13.8948 4.63869 13.8 4.4 13.8C4.16131 13.8 3.93239 13.8948 3.7636 14.0636C3.59482 14.2324 3.5 14.4613 3.5 14.7V18.3C3.5 19.0161 3.78446 19.7028 4.29081 20.2092C4.79716 20.7155 5.48392 21 6.2 21H18.8C19.5161 21 20.2028 20.7155 20.7092 20.2092C21.2155 19.7028 21.5 19.0161 21.5 18.3V14.7C21.5 14.4613 21.4052 14.2324 21.2364 14.0636C21.0676 13.8948 20.8387 13.8 20.6 13.8ZM11.861 15.339C11.9466 15.4209 12.0475 15.4852 12.158 15.528C12.2657 15.5756 12.3822 15.6002 12.5 15.6002C12.6178 15.6002 12.7343 15.5756 12.842 15.528C12.9525 15.4852 13.0534 15.4209 13.139 15.339L16.739 11.739C16.9085 11.5695 17.0037 11.3397 17.0037 11.1C17.0037 10.8603 16.9085 10.6305 16.739 10.461C16.5695 10.2915 16.3397 10.1963 16.1 10.1963C15.8603 10.1963 15.6305 10.2915 15.461 10.461L13.4 12.531V3.9C13.4 3.66131 13.3052 3.43239 13.1364 3.2636C12.9676 3.09482 12.7387 3 12.5 3C12.2613 3 12.0324 3.09482 11.8636 3.2636C11.6948 3.43239 11.6 3.66131 11.6 3.9V12.531L9.539 10.461C9.45509 10.3771 9.35546 10.3105 9.24582 10.2651C9.13618 10.2197 9.01867 10.1963 8.9 10.1963C8.78133 10.1963 8.66382 10.2197 8.55418 10.2651C8.44454 10.3105 8.34491 10.3771 8.261 10.461C8.17709 10.5449 8.11052 10.6445 8.06511 10.7542C8.01969 10.8638 7.99632 10.9813 7.99632 11.1C7.99632 11.2187 8.01969 11.3362 8.06511 11.4458C8.11052 11.5555 8.17709 11.6551 8.261 11.739L11.861 15.339Z" fill="#222222"/>
</svg>
