<svg width="24" height="24" viewBox="0 0 24 24" fill="none" xmlns="http://www.w3.org/2000/svg">
<g clip-path="url(#clip0_506_21728)">
<path d="M15.6 7.68214L16.316 8.40014L9.271 15.4441H8.555V14.7291L15.6 7.68214ZM18.4 3.00014C18.1957 3.00111 18 3.08227 17.855 3.22614L16.433 4.64914L19.349 7.56614L20.773 6.14214C20.8457 6.07017 20.9034 5.98451 20.9428 5.89011C20.9821 5.7957 21.0024 5.69443 21.0024 5.59214C21.0024 5.48986 20.9821 5.38858 20.9428 5.29418C20.9034 5.19978 20.8457 5.11411 20.773 5.04214L18.953 3.22214C18.8804 3.14993 18.7941 3.09307 18.6991 3.05493C18.6041 3.01679 18.5024 2.99816 18.4 3.00014ZM15.6 5.48114L7 14.0811V17.0001H9.916L18.516 8.40014L15.6 5.48114Z" fill="#333333"/>
<path d="M19.4 21H4.6C4.17565 21 3.76869 20.8314 3.46863 20.5314C3.16857 20.2313 3 19.8243 3 19.4V4.6C3 4.17565 3.16857 3.76869 3.46863 3.46863C3.76869 3.16857 4.17565 3 4.6 3H11.2C11.4122 3 11.6157 3.08429 11.7657 3.23431C11.9157 3.38434 12 3.58783 12 3.8C12 4.01217 11.9157 4.21566 11.7657 4.36569C11.6157 4.51571 11.4122 4.6 11.2 4.6H5.4C5.18783 4.6 4.98434 4.68429 4.83431 4.83431C4.68429 4.98434 4.6 5.18783 4.6 5.4V18.6C4.6 18.8122 4.68429 19.0157 4.83431 19.1657C4.98434 19.3157 5.18783 19.4 5.4 19.4H18.6C18.8122 19.4 19.0157 19.3157 19.1657 19.1657C19.3157 19.0157 19.4 18.8122 19.4 18.6V12.8C19.4 12.5878 19.4843 12.3843 19.6343 12.2343C19.7843 12.0843 19.9878 12 20.2 12C20.4122 12 20.6157 12.0843 20.7657 12.2343C20.9157 12.3843 21 12.5878 21 12.8V19.4C21 19.8243 20.8314 20.2313 20.5314 20.5314C20.2313 20.8314 19.8243 21 19.4 21Z" fill="#333333"/>
</g>
<defs>
<clipPath id="clip0_506_21728">
<rect width="18" height="18" fill="white" transform="translate(3 3)"/>
</clipPath>
</defs>
</svg>
