<svg width="24" height="24" viewBox="0 0 24 24" fill="none" xmlns="http://www.w3.org/2000/svg">
<g clip-path="url(#clip0_406:12874)">
<path d="M11.9989 6.3002C14.4479 6.3002 16.4989 7.0692 18.1069 8.5852C19.1072 9.54579 19.8889 10.7105 20.3989 12.0002C19.8884 13.2884 19.1067 14.4518 18.1069 15.4112C16.4989 16.9292 14.4479 17.7002 11.9989 17.7002C9.54987 17.7002 7.49887 16.9312 5.89087 15.4152C4.89056 14.4546 4.10884 13.2899 3.59887 12.0002C4.10909 10.7112 4.8908 9.54721 5.89087 8.5872C7.49887 7.0712 9.54987 6.3002 11.9989 6.3002ZM11.9989 4.7002C5.30487 4.7002 2.77287 9.7162 2.09887 11.4322C1.96184 11.7985 1.96184 12.2019 2.09887 12.5682C2.76987 14.2842 5.29887 19.2982 11.9989 19.2982C18.6989 19.2982 21.2249 14.2842 21.8989 12.5682C22.0359 12.2019 22.0359 11.7985 21.8989 11.4322C21.2279 9.7162 18.6989 4.7022 11.9989 4.7022V4.7002Z" fill="#333333"/>
<path d="M11.9996 14.7961C14.4297 14.7961 16.3996 12.8261 16.3996 10.3961C16.3996 7.96604 14.4297 5.99609 11.9996 5.99609C9.56956 5.99609 7.59961 7.96604 7.59961 10.3961C7.59961 12.8261 9.56956 14.7961 11.9996 14.7961Z" fill="#333333"/>
<path d="M10.012 10.3969C10.984 10.3969 11.7719 9.60897 11.7719 8.63695C11.7719 7.66493 10.984 6.87695 10.012 6.87695C9.03993 6.87695 8.25195 7.66493 8.25195 8.63695C8.25195 9.60897 9.03993 10.3969 10.012 10.3969Z" fill="white"/>
</g>
<defs>
<clipPath id="clip0_406:12874">
<rect width="20" height="20" fill="white" transform="translate(2 2)"/>
</clipPath>
</defs>
</svg>
