<svg width="24" height="24" viewBox="0 0 24 24" fill="none" xmlns="http://www.w3.org/2000/svg">
<g clip-path="url(#clip0_913_64657)">
<path d="M12 4.8C13.424 4.8 14.8161 5.22227 16.0001 6.01342C17.1841 6.80456 18.107 7.92905 18.6519 9.24468C19.1969 10.5603 19.3395 12.008 19.0617 13.4046C18.7838 14.8013 18.0981 16.0842 17.0912 17.0912C16.0842 18.0981 14.8013 18.7838 13.4047 19.0617C12.008 19.3395 10.5603 19.1969 9.24468 18.6519C7.92905 18.107 6.80457 17.1841 6.01342 16.0001C5.22228 14.8161 4.8 13.424 4.8 12C4.80215 10.0911 5.56141 8.261 6.9112 6.9112C8.261 5.5614 10.0911 4.80214 12 4.8ZM12 3C10.22 3 8.47991 3.52784 6.99987 4.51677C5.51983 5.50571 4.36628 6.91131 3.68509 8.55585C3.0039 10.2004 2.82567 12.01 3.17294 13.7558C3.5202 15.5016 4.37737 17.1053 5.63604 18.364C6.89472 19.6226 8.49836 20.4798 10.2442 20.8271C11.99 21.1743 13.7996 20.9961 15.4442 20.3149C17.0887 19.6337 18.4943 18.4802 19.4832 17.0001C20.4722 15.5201 21 13.78 21 12C21 9.61305 20.0518 7.32387 18.364 5.63604C16.6761 3.94821 14.387 3 12 3V3Z" fill="white"/>
<path d="M10.855 16.2905C10.652 16.291 10.455 16.2224 10.2961 16.0961L7.3954 13.8002C7.3028 13.7267 7.22557 13.6357 7.16813 13.5324C7.11068 13.4291 7.07415 13.3155 7.06061 13.1981C7.04707 13.0807 7.05679 12.9618 7.08922 12.8481C7.12165 12.7344 7.17614 12.6283 7.2496 12.5357C7.32305 12.4431 7.41403 12.3658 7.51733 12.3084C7.62063 12.251 7.73423 12.2144 7.85165 12.2009C7.96907 12.1874 8.08801 12.1971 8.20167 12.2295C8.31533 12.2619 8.4215 12.3164 8.5141 12.3899L10.7092 14.1314L15.3415 8.05458C15.415 7.96198 15.5059 7.88475 15.6092 7.82731C15.7125 7.76986 15.8261 7.73333 15.9436 7.71979C16.061 7.70625 16.1799 7.71597 16.2936 7.7484C16.4072 7.78083 16.5134 7.83532 16.606 7.90878C16.6986 7.98223 16.7758 8.07321 16.8333 8.17651C16.8907 8.27981 16.9272 8.39341 16.9408 8.51083C16.9543 8.62825 16.9446 8.74719 16.9122 8.86085C16.8797 8.97451 16.8253 9.08068 16.7518 9.17328L11.5606 15.9503C11.4762 16.0565 11.3689 16.1423 11.2468 16.2012C11.1246 16.2601 10.9906 16.2906 10.855 16.2905Z" fill="white"/>
</g>
<defs>
<clipPath id="clip0_913_64657">
<rect width="18" height="18" fill="white" transform="translate(3 3)"/>
</clipPath>
</defs>
</svg>
