<svg width="17" height="20" viewBox="0 0 17 20" fill="none" xmlns="http://www.w3.org/2000/svg">
<path d="M14.0024 1.99689H11.466L11.492 2.0459C11.1445 1.42541 10.6379 0.908769 10.0244 0.549166C9.41084 0.189562 8.71254 0 8.00138 0C7.29023 0 6.59193 0.189562 5.97839 0.549166C5.36485 0.908769 4.85826 1.42541 4.51078 2.0459L4.53678 1.99689H2.00035C1.46982 1.99689 0.961025 2.20764 0.585888 2.58278C0.21075 2.95791 0 3.46671 0 3.99723V17.9997C0 18.5302 0.21075 19.039 0.585888 19.4141C0.961025 19.7893 1.46982 20 2.00035 20H14.0024C14.5329 20 15.0417 19.7893 15.4169 19.4141C15.792 19.039 16.0028 18.5302 16.0028 17.9997V3.99723C16.0028 3.46671 15.792 2.95791 15.4169 2.58278C15.0417 2.20764 14.5329 1.99689 14.0024 1.99689ZM6.30109 2.29694C6.588 2.00999 6.94297 1.80046 7.33283 1.68792C7.72269 1.57538 8.13472 1.56351 8.53041 1.65342C8.92611 1.74332 9.29255 1.93208 9.59551 2.20203C9.89846 2.47199 10.128 2.81434 10.2628 3.1971H5.73699C5.85516 2.85855 6.04795 2.55091 6.30109 2.29694ZM14.4025 17.9997C14.4025 18.1058 14.3603 18.2075 14.2853 18.2825C14.2103 18.3576 14.1085 18.3997 14.0024 18.3997H2.00035C1.89424 18.3997 1.79248 18.3576 1.71745 18.2825C1.64243 18.2075 1.60028 18.1058 1.60028 17.9997V3.99723C1.60028 3.89113 1.64243 3.78937 1.71745 3.71434C1.79248 3.63932 1.89424 3.59717 2.00035 3.59717H4.0207C4.00769 3.72919 4.00069 3.86321 4.00069 3.99723V4.3973C4.00069 4.50341 4.04284 4.60517 4.11787 4.68019C4.1929 4.75522 4.29466 4.79737 4.40076 4.79737H11.602C11.7081 4.79737 11.8099 4.75522 11.8849 4.68019C11.9599 4.60517 12.0021 4.50341 12.0021 4.3973V3.99723C12.0021 3.86321 11.9951 3.72919 11.9821 3.59717H14.0024C14.1085 3.59717 14.2103 3.63932 14.2853 3.71434C14.3603 3.78937 14.4025 3.89113 14.4025 3.99723V17.9997ZM4.45277 2.15092C4.43977 2.17692 4.42677 2.20392 4.41276 2.22993C4.42677 2.20392 4.43977 2.17692 4.45277 2.15092ZM4.36375 2.33395C4.35175 2.36095 4.33875 2.38896 4.32675 2.41696C4.33875 2.38896 4.35175 2.36095 4.36375 2.33395ZM4.28374 2.52098C4.27274 2.54898 4.26174 2.57699 4.25173 2.60599C4.26174 2.57699 4.27274 2.54898 4.28374 2.52098ZM4.21273 2.72101L4.18572 2.80103L4.21273 2.72101ZM4.14972 2.92105C4.14272 2.94405 4.13671 2.96806 4.13071 2.99106C4.13671 2.96606 4.14272 2.94305 4.14972 2.92005V2.92105ZM4.09471 3.14309C4.09471 3.15709 4.08771 3.17209 4.08471 3.18609C4.08771 3.17009 4.09071 3.15609 4.09471 3.14209V3.14309ZM11.55 2.15192C11.563 2.17792 11.577 2.20492 11.59 2.23193C11.577 2.20392 11.563 2.17692 11.55 2.15092V2.15192ZM11.639 2.33395L11.676 2.41796L11.639 2.33395ZM11.719 2.52198C11.73 2.54998 11.741 2.57799 11.751 2.60699C11.741 2.57699 11.73 2.54898 11.719 2.52098V2.52198ZM11.79 2.72201L11.817 2.80303L11.79 2.72201ZM11.853 2.92205C11.86 2.94505 11.8661 2.96806 11.8721 2.99206C11.8661 2.96606 11.86 2.94305 11.853 2.92005V2.92205ZM11.9081 3.14309C11.9081 3.15809 11.9151 3.17209 11.9181 3.18709C11.9151 3.17009 11.9111 3.15609 11.9081 3.14109V3.14309Z" fill="#BDBDBD"/>
<path d="M11.0023 15.7995H5.00131C4.7891 15.7995 4.58558 15.7152 4.43553 15.5651C4.28547 15.4151 4.20117 15.2116 4.20117 14.9994C4.20117 14.7871 4.28547 14.5836 4.43553 14.4336C4.58558 14.2835 4.7891 14.1992 5.00131 14.1992H11.0023C11.2146 14.1992 11.4181 14.2835 11.5681 14.4336C11.7182 14.5836 11.8025 14.7871 11.8025 14.9994C11.8025 15.2116 11.7182 15.4151 11.5681 15.5651C11.4181 15.7152 11.2146 15.7995 11.0023 15.7995Z" fill="#BDBDBD"/>
<path d="M11.0023 12.1667H5.00131C4.7891 12.1667 4.58558 12.0824 4.43553 11.9323C4.28547 11.7823 4.20117 11.5788 4.20117 11.3665C4.20117 11.1543 4.28547 10.9508 4.43553 10.8008C4.58558 10.6507 4.7891 10.5664 5.00131 10.5664H11.0023C11.2146 10.5664 11.4181 10.6507 11.5681 10.8008C11.7182 10.9508 11.8025 11.1543 11.8025 11.3665C11.8025 11.5788 11.7182 11.7823 11.5681 11.9323C11.4181 12.0824 11.2146 12.1667 11.0023 12.1667Z" fill="#BDBDBD"/>
</svg>
