<svg width="21" height="20" viewBox="0 0 21 20" fill="none" xmlns="http://www.w3.org/2000/svg">
<g clip-path="url(#clip0_2388_55702)">
<path d="M10.332 2.8C11.7561 2.8 13.1481 3.22227 14.3321 4.01342C15.5162 4.80456 16.439 5.92905 16.984 7.24468C17.5289 8.56031 17.6715 10.008 17.3937 11.4046C17.1159 12.8013 16.4301 14.0842 15.4232 15.0912C14.4163 16.0981 13.1333 16.7838 11.7367 17.0617C10.34 17.3395 8.89234 17.1969 7.57671 16.6519C6.26109 16.107 5.1366 15.1841 4.34545 14.0001C3.55431 12.8161 3.13204 11.424 3.13204 10C3.13418 8.0911 3.89344 6.261 5.24323 4.9112C6.59303 3.5614 8.42313 2.80214 10.332 2.8ZM10.332 1C8.552 1 6.81195 1.52784 5.3319 2.51677C3.85186 3.50571 2.69831 4.91131 2.01712 6.55585C1.33593 8.20038 1.1577 10.01 1.50497 11.7558C1.85223 13.5016 2.7094 15.1053 3.96807 16.364C5.22675 17.6226 6.83039 18.4798 8.57622 18.8271C10.3221 19.1743 12.1317 18.9961 13.7762 18.3149C15.4207 17.6337 16.8263 16.4802 17.8153 15.0001C18.8042 13.5201 19.332 11.78 19.332 10C19.332 7.61305 18.3838 5.32387 16.696 3.63604C15.0082 1.94821 12.719 1 10.332 1V1Z" fill="#499E3B"/>
<path d="M9.18703 14.2905C8.98407 14.291 8.78698 14.2224 8.62813 14.0961L5.72743 11.8002C5.63483 11.7267 5.5576 11.6357 5.50016 11.5324C5.44272 11.4291 5.40618 11.3155 5.39264 11.1981C5.3791 11.0807 5.38883 10.9618 5.42125 10.8481C5.45368 10.7344 5.50817 10.6283 5.58163 10.5357C5.65508 10.4431 5.74606 10.3658 5.84936 10.3084C5.95266 10.251 6.06626 10.2144 6.18368 10.2009C6.3011 10.1874 6.42004 10.1971 6.5337 10.2295C6.64736 10.2619 6.75353 10.3164 6.84613 10.3899L9.04123 12.1314L13.6735 6.05458C13.747 5.96198 13.838 5.88475 13.9413 5.82731C14.0446 5.76986 14.1582 5.73333 14.2756 5.71979C14.393 5.70625 14.5119 5.71597 14.6256 5.7484C14.7393 5.78083 14.8454 5.83532 14.938 5.90878C15.0306 5.98223 15.1079 6.07321 15.1653 6.17651C15.2227 6.27981 15.2593 6.39341 15.2728 6.51083C15.2864 6.62825 15.2766 6.74719 15.2442 6.86085C15.2118 6.97451 15.1573 7.08068 15.0838 7.17328L9.89263 13.9503C9.80826 14.0565 9.70097 14.1423 9.57878 14.2012C9.4566 14.2601 9.32267 14.2906 9.18703 14.2905Z" fill="#499E3B"/>
</g>
<defs>
<clipPath id="clip0_2388_55702">
<rect width="18" height="18" fill="white" transform="translate(1.33203 1)"/>
</clipPath>
</defs>
</svg>
