<svg width="18" height="18" viewBox="0 0 18 18" fill="none" xmlns="http://www.w3.org/2000/svg">
<g clip-path="url(#clip0_4389_3771)">
<path d="M17.2004 8.99868C17.0953 8.99876 16.9913 8.97814 16.8941 8.93798C16.797 8.89783 16.7088 8.83894 16.6344 8.76468L9.00044 1.92968L1.36644 8.76468C1.21633 8.91479 1.01274 8.99912 0.800444 8.99912C0.588153 8.99912 0.384557 8.91479 0.234445 8.76468C0.0843323 8.61456 2.23685e-09 8.41097 0 8.19868C-2.23685e-09 7.98638 0.0843323 7.78279 0.234445 7.63268L8.43444 0.232676C8.50874 0.158295 8.59697 0.0992879 8.69409 0.0590284C8.7912 0.018769 8.8953 -0.00195312 9.00044 -0.00195312C9.10557 -0.00195312 9.20967 0.018769 9.30679 0.0590284C9.40391 0.0992879 9.49214 0.158295 9.56644 0.232676L17.7664 7.63268C17.8784 7.74456 17.9547 7.88716 17.9857 8.04243C18.0166 8.1977 18.0007 8.35865 17.9401 8.50491C17.8795 8.65117 17.7769 8.77616 17.6452 8.86405C17.5135 8.95195 17.3587 8.9988 17.2004 8.99868Z" fill="#D4A969"/>
<path d="M15.495 18H11.501C11.2889 18 11.0854 17.9157 10.9353 17.7657C10.7853 17.6157 10.701 17.4122 10.701 17.2V14.872C10.701 13.92 9.92203 13.113 8.97103 13.132C8.52588 13.1414 8.10203 13.3245 7.79001 13.6421C7.47798 13.9597 7.3025 14.3868 7.30103 14.832V17.2C7.30103 17.4122 7.21675 17.6157 7.06672 17.7657C6.91669 17.9157 6.7132 18 6.50103 18H2.50703C2.29486 18 2.09137 17.9157 1.94135 17.7657C1.79132 17.6157 1.70703 17.4122 1.70703 17.2V9.8C1.70703 9.58783 1.79132 9.38434 1.94135 9.23431C2.09137 9.08429 2.29486 9 2.50703 9C2.7192 9 2.92269 9.08429 3.07272 9.23431C3.22275 9.38434 3.30703 9.58783 3.30703 9.8V16.4H5.70103V14.9C5.70103 13.054 7.21103 11.5 9.05703 11.529C9.9225 11.5437 10.7476 11.8978 11.3544 12.5151C11.9612 13.1324 12.3012 13.9634 12.301 14.829V16.4H14.701V9.8C14.701 9.58783 14.7853 9.38434 14.9353 9.23431C15.0854 9.08429 15.2889 9 15.501 9C15.7132 9 15.9167 9.08429 16.0667 9.23431C16.2167 9.38434 16.301 9.58783 16.301 9.8V17.2C16.301 17.3056 16.2801 17.4101 16.2396 17.5075C16.199 17.605 16.1395 17.6935 16.0646 17.7678C15.9897 17.8422 15.9008 17.901 15.803 17.9408C15.7053 17.9807 15.6006 18.0008 15.495 18Z" fill="#D4A969"/>
</g>
<defs>
<clipPath id="clip0_4389_3771">
<rect width="18" height="18" fill="white"/>
</clipPath>
</defs>
</svg>
