<svg width="24" height="24" viewBox="0 0 24 24" fill="none" xmlns="http://www.w3.org/2000/svg">
<g clip-path="url(#clip0_4545_5554)">
<path d="M20.2004 11.9987C20.0953 11.9988 19.9913 11.9781 19.8941 11.938C19.797 11.8978 19.7088 11.8389 19.6344 11.7647L12.0004 4.92968L4.36644 11.7647C4.21633 11.9148 4.01274 11.9991 3.80044 11.9991C3.58815 11.9991 3.38456 11.9148 3.23444 11.7647C3.08433 11.6146 3 11.411 3 11.1987C3 10.9864 3.08433 10.7828 3.23444 10.6327L11.4344 3.23268C11.5087 3.1583 11.597 3.09929 11.6941 3.05903C11.7912 3.01877 11.8953 2.99805 12.0004 2.99805C12.1056 2.99805 12.2097 3.01877 12.3068 3.05903C12.4039 3.09929 12.4921 3.1583 12.5664 3.23268L20.7664 10.6327C20.8784 10.7446 20.9547 10.8872 20.9857 11.0424C21.0166 11.1977 21.0007 11.3587 20.9401 11.5049C20.8795 11.6512 20.7769 11.7762 20.6452 11.8641C20.5135 11.9519 20.3587 11.9988 20.2004 11.9987Z" fill="#BDBDBD"/>
<path d="M18.495 21H14.501C14.2889 21 14.0854 20.9157 13.9353 20.7657C13.7853 20.6157 13.701 20.4122 13.701 20.2V17.872C13.701 16.92 12.922 16.113 11.971 16.132C11.5259 16.1414 11.102 16.3245 10.79 16.6421C10.478 16.9597 10.3025 17.3868 10.301 17.832V20.2C10.301 20.4122 10.2167 20.6157 10.0667 20.7657C9.91669 20.9157 9.7132 21 9.50103 21H5.50703C5.29486 21 5.09137 20.9157 4.94135 20.7657C4.79132 20.6157 4.70703 20.4122 4.70703 20.2V12.8C4.70703 12.5878 4.79132 12.3843 4.94135 12.2343C5.09137 12.0843 5.29486 12 5.50703 12C5.7192 12 5.92269 12.0843 6.07272 12.2343C6.22275 12.3843 6.30703 12.5878 6.30703 12.8V19.4H8.70103V17.9C8.70103 16.054 10.211 14.5 12.057 14.529C12.9225 14.5437 13.7476 14.8978 14.3544 15.5151C14.9612 16.1324 15.3012 16.9634 15.301 17.829V19.4H17.701V12.8C17.701 12.5878 17.7853 12.3843 17.9353 12.2343C18.0854 12.0843 18.2889 12 18.501 12C18.7132 12 18.9167 12.0843 19.0667 12.2343C19.2167 12.3843 19.301 12.5878 19.301 12.8V20.2C19.301 20.3056 19.2801 20.4101 19.2396 20.5075C19.199 20.605 19.1395 20.6935 19.0646 20.7678C18.9897 20.8422 18.9008 20.901 18.803 20.9408C18.7053 20.9807 18.6006 21.0008 18.495 21Z" fill="#BDBDBD"/>
</g>
<defs>
<clipPath id="clip0_4545_5554">
<rect width="18" height="18" fill="white" transform="translate(3 3)"/>
</clipPath>
</defs>
</svg>
