<svg width="24" height="24" viewBox="0 0 24 24" fill="none" xmlns="http://www.w3.org/2000/svg">
<path d="M20.6917 19.2712L18.9847 17.5652C18.6811 17.2628 18.4831 16.8705 18.4201 16.4467C18.3571 16.0228 18.4323 15.5899 18.6347 15.2122C19.3213 13.9309 19.6577 12.4911 19.6097 11.0382C19.4727 6.63822 15.8617 3.08122 11.4597 3.00122C10.1929 2.97953 8.93807 3.24811 7.79119 3.78637C6.64431 4.32464 5.63588 5.11831 4.84315 6.10656C4.05043 7.09481 3.49446 8.25142 3.21784 9.48776C2.94122 10.7241 2.95129 12.0074 3.24729 13.2392C3.54329 14.471 4.11736 15.6188 4.9255 16.5945C5.73365 17.5701 6.75442 18.3479 7.90961 18.8681C9.0648 19.3883 10.3237 19.6371 11.59 19.5955C12.8562 19.554 14.0961 19.2231 15.2147 18.6282C15.5928 18.4267 16.0256 18.352 16.4494 18.415C16.8732 18.478 17.2655 18.6754 17.5687 18.9782L19.2997 20.7072C19.3968 20.8045 19.5129 20.8808 19.6408 20.9312C19.7687 20.9816 19.9056 21.0051 20.043 21.0002C20.1804 20.9953 20.3153 20.9622 20.4393 20.9028C20.5633 20.8435 20.6737 20.7592 20.7637 20.6552C20.928 20.4578 21.0118 20.2056 20.9985 19.9491C20.9851 19.6926 20.8756 19.4506 20.6917 19.2712ZM5.30666 11.7002C5.22527 10.4799 5.51795 9.2637 6.14567 8.214C6.77338 7.16431 7.70627 6.33099 8.81987 5.82523C9.93347 5.31947 11.1748 5.16533 12.3783 5.38337C13.5818 5.60141 14.6901 6.18127 15.5555 7.04556C16.4209 7.90986 17.0021 9.0175 17.2217 10.2207C17.4412 11.4239 17.2886 12.6654 16.7843 13.7797C16.2799 14.8939 15.4477 15.8278 14.3988 16.4569C13.3499 17.0859 12.1341 17.3801 10.9137 17.3002C9.45942 17.204 8.08952 16.5833 7.05832 15.5534C6.02712 14.5235 5.40471 13.1543 5.30666 11.7002Z" fill="#333333"/>
</svg>
