<svg width="24" height="24" viewBox="0 0 24 24" fill="none" xmlns="http://www.w3.org/2000/svg">
<g clip-path="url(#clip0_913_64663)">
<path d="M12 4.8C13.424 4.8 14.8161 5.22227 16.0001 6.01342C17.1841 6.80456 18.107 7.92905 18.6519 9.24468C19.1969 10.5603 19.3395 12.008 19.0617 13.4046C18.7838 14.8013 18.0981 16.0842 17.0912 17.0912C16.0842 18.0981 14.8013 18.7838 13.4047 19.0617C12.008 19.3395 10.5603 19.1969 9.24468 18.6519C7.92905 18.107 6.80457 17.1841 6.01342 16.0001C5.22228 14.8161 4.8 13.424 4.8 12C4.80215 10.0911 5.56141 8.261 6.9112 6.9112C8.261 5.5614 10.0911 4.80214 12 4.8ZM12 3C10.22 3 8.47991 3.52784 6.99987 4.51677C5.51983 5.50571 4.36628 6.91131 3.68509 8.55585C3.0039 10.2004 2.82567 12.01 3.17294 13.7558C3.5202 15.5016 4.37737 17.1053 5.63604 18.364C6.89472 19.6226 8.49836 20.4798 10.2442 20.8271C11.99 21.1743 13.7996 20.9961 15.4442 20.3149C17.0887 19.6337 18.4943 18.4802 19.4832 17.0001C20.4722 15.5201 21 13.78 21 12C21 9.61305 20.0518 7.32387 18.364 5.63604C16.6761 3.94821 14.387 3 12 3V3Z" fill="white"/>
<path d="M16.5072 8.7217L15.303 7.5166L12.0153 11.2543L8.72854 7.5166L7.52344 8.7217L11.2611 12.0085L7.52344 15.2953L8.72854 16.5004L12.0153 12.7627L15.303 16.5004L16.5072 15.2953L12.7695 12.0085L16.5072 8.7217Z" fill="white"/>
</g>
<defs>
<clipPath id="clip0_913_64663">
<rect width="18" height="18" fill="white" transform="translate(3 3)"/>
</clipPath>
</defs>
</svg>
