<svg width="24" height="24" viewBox="0 0 24 24" fill="none" xmlns="http://www.w3.org/2000/svg">
<path d="M9.041 4.6V9.038H4.6V4.6H9.039H9.041ZM9.249 3H4.39C4.02135 3 3.6678 3.14645 3.40712 3.40712C3.14645 3.6678 3 4.02135 3 4.39V9.249C3 9.43149 3.03596 9.61219 3.10583 9.78078C3.17569 9.94936 3.2781 10.1025 3.40718 10.2315C3.53627 10.3605 3.68951 10.4628 3.85815 10.5326C4.02678 10.6023 4.20751 10.6381 4.39 10.638H9.249C9.61748 10.638 9.97088 10.4917 10.2315 10.2312C10.4922 9.97077 10.6387 9.61748 10.639 9.249V4.39C10.639 4.0217 10.4928 3.66845 10.2326 3.40783C9.97234 3.14721 9.6193 3.00053 9.251 3H9.249Z" fill="#333333"/>
<path d="M9.041 14.9633V19.4013H4.6V14.9633H9.039H9.041ZM9.249 13.3633H4.39C4.20751 13.3632 4.02678 13.399 3.85815 13.4687C3.68951 13.5385 3.53627 13.6408 3.40718 13.7698C3.2781 13.8987 3.17569 14.0519 3.10583 14.2205C3.03596 14.3891 3 14.5698 3 14.7523V19.6113C3 19.7938 3.03595 19.9746 3.10581 20.1432C3.17566 20.3118 3.27805 20.4651 3.40712 20.5942C3.53619 20.7232 3.68943 20.8256 3.85807 20.8955C4.02671 20.9653 4.20746 21.0013 4.39 21.0013H9.249C9.43154 21.0013 9.61229 20.9653 9.78093 20.8955C9.94957 20.8256 10.1028 20.7232 10.2319 20.5942C10.361 20.4651 10.4633 20.3118 10.5332 20.1432C10.603 19.9746 10.639 19.7938 10.639 19.6113V14.7523C10.6387 14.3838 10.4922 14.0305 10.2315 13.77C9.97088 13.5096 9.61748 13.3633 9.249 13.3633Z" fill="#333333"/>
<path d="M19.3993 14.9633V19.4013H14.9633V14.9633H19.3993ZM19.6103 13.3633H14.7533C14.5708 13.3632 14.3901 13.399 14.2214 13.4687C14.0528 13.5385 13.8996 13.6408 13.7705 13.7698C13.6414 13.8987 13.539 14.0519 13.4691 14.2205C13.3992 14.3891 13.3633 14.5698 13.3633 14.7523V19.6113C13.3633 19.7938 13.3992 19.9746 13.4691 20.1432C13.5389 20.3118 13.6413 20.4651 13.7704 20.5942C13.8995 20.7232 14.0527 20.8256 14.2214 20.8955C14.39 20.9653 14.5707 21.0013 14.7533 21.0013H19.6123C19.9805 21.0007 20.3334 20.854 20.5935 20.5934C20.8536 20.3327 20.9996 19.9795 20.9993 19.6113V14.7523C20.9993 14.3839 20.8529 14.0306 20.5925 13.7701C20.332 13.5096 19.9787 13.3633 19.6103 13.3633Z" fill="#333333"/>
<path d="M19.3993 4.6V9.038H14.9633V4.6H19.3993ZM19.6103 3H14.7533C14.3846 3 14.0311 3.14645 13.7704 3.40712C13.5097 3.6678 13.3633 4.02135 13.3633 4.39V9.249C13.3633 9.43149 13.3992 9.61219 13.4691 9.78078C13.539 9.94936 13.6414 10.1025 13.7705 10.2315C13.8996 10.3605 14.0528 10.4628 14.2214 10.5326C14.3901 10.6023 14.5708 10.6381 14.7533 10.638H19.6123C19.9803 10.6375 20.3331 10.4909 20.5932 10.2305C20.8532 9.97003 20.9993 9.61704 20.9993 9.249V4.39C20.9996 4.02179 20.8536 3.66854 20.5935 3.40789C20.3334 3.14724 19.9805 3.00053 19.6123 3H19.6103Z" fill="#333333"/>
</svg>
