<svg width="24" height="24" viewBox="0 0 24 24" fill="none" xmlns="http://www.w3.org/2000/svg">
<path d="M5 12.9997L16.86 12.9997L13.23 17.3597C13.0603 17.5639 12.9786 17.8272 13.003 18.0916C13.0274 18.3561 13.1558 18.6 13.36 18.7697C13.5642 18.9395 13.8275 19.0211 14.0919 18.9967C14.3563 18.9724 14.6003 18.8439 14.77 18.6397L19.77 12.6397C19.8036 12.592 19.8337 12.5419 19.86 12.4897C19.86 12.4397 19.86 12.4097 19.93 12.3597C19.9753 12.2451 19.9991 12.123 20 11.9997C19.9991 11.8764 19.9753 11.7544 19.93 11.6397C19.93 11.5897 19.93 11.5597 19.86 11.5097C19.8337 11.4576 19.8036 11.4074 19.77 11.3597L14.77 5.35972C14.676 5.24684 14.5582 5.15606 14.4252 5.09384C14.2921 5.03162 14.1469 4.99949 14 4.99972C13.7663 4.99927 13.5399 5.08064 13.36 5.22972C13.2587 5.31367 13.175 5.41677 13.1137 5.53312C13.0523 5.64947 13.0145 5.77677 13.0025 5.90775C12.9904 6.03873 13.0043 6.1708 13.0433 6.2964C13.0824 6.42201 13.1458 6.53867 13.23 6.63972L16.86 10.9997L5 10.9997C4.73478 10.9997 4.48043 11.1051 4.29289 11.2926C4.10536 11.4802 4 11.7345 4 11.9997C4 12.2649 4.10536 12.5193 4.29289 12.7068C4.48043 12.8944 4.73478 12.9997 5 12.9997Z" fill="#333333"/>
</svg>
