<svg width="60" height="60" viewBox="0 0 60 60" fill="none" xmlns="http://www.w3.org/2000/svg">
<path d="M53.5781 6.42188C45.6094 -1.54688 32.7187 -1.54688 24.75 6.42188C18.0469 13.125 17.0156 23.2969 21.5625 31.125L17.7656 34.9219L25.0781 42.2344L28.875 38.4375C36.7031 42.9844 46.875 41.9531 53.5781 35.25C61.5 27.3281 61.5 14.3906 53.5781 6.42188ZM49.5469 31.2656C43.8281 37.0313 34.5 37.0313 28.7344 31.2656C22.9687 25.5 22.9687 16.1719 28.7344 10.4531C34.5 4.6875 43.8281 4.6875 49.5469 10.4531C55.3125 16.1719 55.3125 25.5 49.5469 31.2656Z" fill="#999999"/>
<path d="M39.2345 26.0156C38.5314 26.0156 37.9689 26.25 37.5001 26.7187C37.0314 27.1875 36.797 27.75 36.797 28.4531C36.797 29.1562 37.0314 29.7188 37.5001 30.1875C37.9689 30.6563 38.5314 30.8906 39.2345 30.8906C39.9376 30.8906 40.5001 30.6563 40.9689 30.1875C41.4376 29.7188 41.672 29.1562 41.672 28.4531C41.672 27.75 41.4376 27.1875 40.9689 26.7187C40.4533 26.25 39.8908 26.0156 39.2345 26.0156ZM43.5939 12.2344C42.5158 11.2969 41.1095 10.8281 39.3751 10.8281C37.6408 10.8281 36.1876 11.3437 35.0626 12.4219C33.9376 13.4531 33.2345 14.9531 33.047 16.7812H37.4533C37.547 16.0781 37.7345 15.5625 38.0626 15.1406C38.3908 14.7187 38.7658 14.5312 39.2814 14.5312C39.7501 14.5312 40.172 14.7187 40.4533 15.0469C40.7345 15.375 40.8751 15.8438 40.8751 16.3594C40.8751 16.875 40.7345 17.2969 40.4533 17.6719L38.5783 19.5937C37.9689 20.25 37.547 20.7656 37.3595 21.1406C37.172 21.5156 37.0314 22.0312 37.0314 22.8281V24.8906H41.2501V23.2031C41.2501 22.6875 41.297 22.3125 41.4376 22.0781C41.5783 21.8437 41.8126 21.5156 42.2345 21.1406C42.6095 20.7656 43.0314 20.3437 43.5001 19.875C43.5939 19.7812 43.7814 19.5937 44.0626 19.2656C44.3439 18.9375 44.4845 18.7031 44.5783 18.5625C44.672 18.4219 44.7658 18.1406 44.9533 17.7656C45.1408 17.3906 45.2345 16.875 45.2345 16.125C45.2345 14.4844 44.672 13.1719 43.5939 12.2344ZM3.75013 45.5156C-0.187366 48.2344 -0.702991 53.8594 2.71888 57.2812C6.09388 60.6562 11.7189 60.1875 14.4845 56.25L23.1564 43.7812L16.2189 36.8437L3.75013 45.5156Z" fill="#999999"/>
</svg>
