<svg width="24" height="24" viewBox="0 0 24 24" fill="none" xmlns="http://www.w3.org/2000/svg">
<path d="M18.0024 3.99689H15.466L15.492 4.0459C15.1445 3.42541 14.6379 2.90877 14.0244 2.54917C13.4108 2.18956 12.7125 2 12.0014 2C11.2902 2 10.5919 2.18956 9.97839 2.54917C9.36485 2.90877 8.85826 3.42541 8.51078 4.0459L8.53678 3.99689H6.00035C5.46982 3.99689 4.96103 4.20764 4.58589 4.58278C4.21075 4.95791 4 5.46671 4 5.99723V19.9997C4 20.5302 4.21075 21.039 4.58589 21.4141C4.96103 21.7893 5.46982 22 6.00035 22H18.0024C18.5329 22 19.0417 21.7893 19.4169 21.4141C19.792 21.039 20.0028 20.5302 20.0028 19.9997V5.99723C20.0028 5.46671 19.792 4.95791 19.4169 4.58278C19.0417 4.20764 18.5329 3.99689 18.0024 3.99689ZM10.3011 4.29694C10.588 4.00999 10.943 3.80046 11.3328 3.68792C11.7227 3.57538 12.1347 3.56351 12.5304 3.65342C12.9261 3.74332 13.2926 3.93208 13.5955 4.20203C13.8985 4.47199 14.128 4.81434 14.2628 5.1971H9.73699C9.85516 4.85855 10.0479 4.55091 10.3011 4.29694ZM18.4025 19.9997C18.4025 20.1058 18.3603 20.2075 18.2853 20.2825C18.2103 20.3576 18.1085 20.3997 18.0024 20.3997H6.00035C5.89424 20.3997 5.79248 20.3576 5.71745 20.2825C5.64243 20.2075 5.60028 20.1058 5.60028 19.9997V5.99723C5.60028 5.89113 5.64243 5.78937 5.71745 5.71434C5.79248 5.63932 5.89424 5.59717 6.00035 5.59717H8.0207C8.00769 5.72919 8.00069 5.86321 8.00069 5.99723V6.3973C8.00069 6.50341 8.04284 6.60517 8.11787 6.68019C8.1929 6.75522 8.29466 6.79737 8.40076 6.79737H15.602C15.7081 6.79737 15.8099 6.75522 15.8849 6.68019C15.9599 6.60517 16.0021 6.50341 16.0021 6.3973V5.99723C16.0021 5.86321 15.9951 5.72919 15.9821 5.59717H18.0024C18.1085 5.59717 18.2103 5.63932 18.2853 5.71434C18.3603 5.78937 18.4025 5.89113 18.4025 5.99723V19.9997ZM8.45277 4.15092C8.43977 4.17692 8.42677 4.20392 8.41276 4.22993C8.42677 4.20392 8.43977 4.17692 8.45277 4.15092ZM8.36375 4.33395C8.35175 4.36095 8.33875 4.38896 8.32675 4.41696C8.33875 4.38896 8.35175 4.36095 8.36375 4.33395ZM8.28374 4.52098C8.27274 4.54898 8.26174 4.57699 8.25173 4.60599C8.26174 4.57699 8.27274 4.54898 8.28374 4.52098ZM8.21273 4.72101L8.18572 4.80103L8.21273 4.72101ZM8.14972 4.92105C8.14272 4.94405 8.13671 4.96806 8.13071 4.99106C8.13671 4.96606 8.14272 4.94305 8.14972 4.92005V4.92105ZM8.09471 5.14309C8.09471 5.15709 8.08771 5.17209 8.08471 5.18609C8.08771 5.17009 8.09071 5.15609 8.09471 5.14209V5.14309ZM15.55 4.15192C15.563 4.17792 15.577 4.20492 15.59 4.23193C15.577 4.20392 15.563 4.17692 15.55 4.15092V4.15192ZM15.639 4.33395L15.676 4.41796L15.639 4.33395ZM15.719 4.52198C15.73 4.54998 15.741 4.57799 15.751 4.60699C15.741 4.57699 15.73 4.54898 15.719 4.52098V4.52198ZM15.79 4.72201L15.817 4.80303L15.79 4.72201ZM15.853 4.92205C15.86 4.94505 15.8661 4.96806 15.8721 4.99206C15.8661 4.96606 15.86 4.94305 15.853 4.92005V4.92205ZM15.9081 5.14309C15.9081 5.15809 15.9151 5.17209 15.9181 5.18709C15.9151 5.17009 15.9111 5.15609 15.9081 5.14109V5.14309Z" fill="#333333"/>
<path d="M15.0023 17.7995H9.00131C8.7891 17.7995 8.58558 17.7152 8.43553 17.5651C8.28547 17.4151 8.20117 17.2116 8.20117 16.9994C8.20117 16.7871 8.28547 16.5836 8.43553 16.4336C8.58558 16.2835 8.7891 16.1992 9.00131 16.1992H15.0023C15.2146 16.1992 15.4181 16.2835 15.5681 16.4336C15.7182 16.5836 15.8025 16.7871 15.8025 16.9994C15.8025 17.2116 15.7182 17.4151 15.5681 17.5651C15.4181 17.7152 15.2146 17.7995 15.0023 17.7995Z" fill="#333333"/>
<path d="M15.0023 14.1677H9.00131C8.7891 14.1677 8.58558 14.0834 8.43553 13.9333C8.28547 13.7833 8.20117 13.5797 8.20117 13.3675C8.20117 13.1553 8.28547 12.9518 8.43553 12.8017C8.58558 12.6517 8.7891 12.5674 9.00131 12.5674H15.0023C15.2146 12.5674 15.4181 12.6517 15.5681 12.8017C15.7182 12.9518 15.8025 13.1553 15.8025 13.3675C15.8025 13.5797 15.7182 13.7833 15.5681 13.9333C15.4181 14.0834 15.2146 14.1677 15.0023 14.1677Z" fill="#333333"/>
</svg>
