<svg width="70" height="70" viewBox="0 0 70 70" fill="none" xmlns="http://www.w3.org/2000/svg">
  <path fill-rule="evenodd" clip-rule="evenodd"
        d="M70 40L64.35 4.3C63.95 1.9 61.85 0 59.35 0H10.65C8.15 0 6.05 1.9 5.65 4.3L0 40V65C0 67.75 2.25 70 5 70H65C67.75 70 70 67.75 70 65V40ZM53.6 42.75L51.4 47.2C50.55 48.9 48.8 50 46.85 50H23.05C21.15 50 19.45 48.9 18.6 47.25L16.4 42.7C15.55 41.05 13.8 39.95 11.95 39.95H5L10 4.95H60L65 39.95H58.1C56.15 39.95 54.45 41.05 53.55 42.7L53.6 42.75Z"
        fill="#999999"/>
</svg>
