<svg width="17" height="20" viewBox="0 0 17 20" fill="none" xmlns="http://www.w3.org/2000/svg">
<path d="M5.5 8H6.5C6.76522 8 7.01957 7.89464 7.20711 7.70711C7.39464 7.51957 7.5 7.26522 7.5 7C7.5 6.73478 7.39464 6.48043 7.20711 6.29289C7.01957 6.10536 6.76522 6 6.5 6H5.5C5.23478 6 4.98043 6.10536 4.79289 6.29289C4.60536 6.48043 4.5 6.73478 4.5 7C4.5 7.26522 4.60536 7.51957 4.79289 7.70711C4.98043 7.89464 5.23478 8 5.5 8ZM10.7105 10.3862L9.03711 12.5381L8.16895 11.7568C8.06772 11.6657 7.94894 11.5962 7.81989 11.5526C7.69085 11.5091 7.55425 11.4923 7.4185 11.5034C7.28274 11.5145 7.15069 11.5533 7.03045 11.6172C6.9102 11.6812 6.8043 11.7691 6.71924 11.8755L4.71924 14.3755C4.63666 14.478 4.57512 14.5957 4.53815 14.722C4.50118 14.8483 4.48951 14.9807 4.50382 15.1115C4.51812 15.2424 4.55811 15.3691 4.6215 15.4844C4.68488 15.5997 4.77042 15.7014 4.87319 15.7836C4.97597 15.8658 5.09396 15.9269 5.2204 15.9634C5.34684 15.9999 5.47925 16.0111 5.61002 15.9963C5.74079 15.9816 5.86736 15.9411 5.98246 15.8773C6.09756 15.8135 6.19893 15.7276 6.28076 15.6245L7.61865 13.9521L8.49756 14.7431C8.59966 14.8351 8.71961 14.905 8.84993 14.9485C8.98024 14.992 9.11813 15.0082 9.25498 14.9961C9.39183 14.9839 9.52472 14.9437 9.64534 14.8779C9.76596 14.8121 9.87173 14.7222 9.95605 14.6137L12.2895 11.6137C12.4523 11.4043 12.5253 11.1388 12.4923 10.8757C12.4593 10.6125 12.3232 10.3732 12.1138 10.2104C12.0101 10.1298 11.8915 10.0704 11.7649 10.0356C11.6383 10.0009 11.506 9.99135 11.3757 10.0077C11.1125 10.0406 10.8732 10.1768 10.7105 10.3862V10.3862ZM16.4876 6.93829C16.4745 6.6972 16.3753 6.46879 16.2082 6.29456L16.2067 6.29266L10.2073 0.29327L10.2055 0.29181C10.1222 0.211296 10.0253 0.146035 9.91943 0.099C9.88953 0.085 9.85843 0.07709 9.82697 0.066C9.74101 0.0357777 9.65126 0.0176609 9.5603 0.0121701C9.53925 0.0108601 9.52136 0 9.5 0H3.5C2.70462 0.000868196 1.94206 0.317218 1.37964 0.879639C0.817218 1.44206 0.500868 2.20462 0.5 3V17C0.500868 17.7954 0.817218 18.5579 1.37964 19.1204C1.94206 19.6828 2.70462 19.9991 3.5 20H13.5C14.2954 19.9991 15.0579 19.6828 15.6204 19.1204C16.1828 18.5579 16.4991 17.7954 16.5 17V7C16.5 6.97809 16.489 6.95984 16.4876 6.93829ZM10.5 3.41406L13.0859 6H11.5C11.2349 5.99966 10.9807 5.89419 10.7933 5.70673C10.6058 5.51927 10.5003 5.26511 10.5 5V3.41406ZM14.5 17C14.4997 17.2651 14.3942 17.5193 14.2067 17.7067C14.0193 17.8942 13.7651 17.9997 13.5 18H3.5C3.23489 17.9997 2.98073 17.8942 2.79327 17.7067C2.60581 17.5193 2.50034 17.2651 2.5 17V3C2.50034 2.73489 2.60581 2.48073 2.79327 2.29327C2.98073 2.10581 3.23489 2.00034 3.5 2H8.5V5C8.50087 5.79538 8.81722 6.55794 9.37964 7.12036C9.94206 7.68278 10.7046 7.99913 11.5 8H14.5V17Z" fill="#222222"/>
</svg>
