<svg width="48" height="48" viewBox="0 0 48 48" fill="none" xmlns="http://www.w3.org/2000/svg">
<g clip-path="url(#clip0_2160_341)">
<path d="M24 16C25.5823 16 27.129 16.4692 28.4446 17.3482C29.7602 18.2273 30.7855 19.4767 31.391 20.9385C31.9965 22.4003 32.155 24.0089 31.8463 25.5607C31.5376 27.1126 30.7757 28.538 29.6569 29.6569C28.538 30.7757 27.1126 31.5376 25.5607 31.8463C24.0089 32.155 22.4003 31.9965 20.9385 31.391C19.4767 30.7855 18.2273 29.7602 17.3482 28.4446C16.4692 27.129 16 25.5822 16 24C16.0024 21.879 16.846 19.8456 18.3458 18.3458C19.8456 16.846 21.879 16.0024 24 16ZM24 14C22.0222 14 20.0888 14.5865 18.4443 15.6853C16.7998 16.7841 15.5181 18.3459 14.7612 20.1732C14.0043 22.0004 13.8063 24.0111 14.1922 25.9509C14.578 27.8907 15.5304 29.6725 16.9289 31.0711C18.3275 32.4696 20.1093 33.422 22.0491 33.8079C23.9889 34.1937 25.9996 33.9957 27.8268 33.2388C29.6541 32.4819 31.2159 31.2002 32.3147 29.5557C33.4135 27.9112 34 25.9778 34 24C34 21.3478 32.9464 18.8043 31.0711 16.9289C29.1957 15.0536 26.6522 14 24 14V14Z" fill="#499E3B"/>
<path d="M22.7265 28.7678C22.501 28.7684 22.282 28.6922 22.1055 28.5518L18.8825 26.0008C18.7796 25.9192 18.6938 25.8181 18.63 25.7034C18.5661 25.5886 18.5255 25.4624 18.5105 25.3319C18.4954 25.2014 18.5062 25.0693 18.5423 24.943C18.5783 24.8167 18.6389 24.6987 18.7205 24.5958C18.8021 24.493 18.9032 24.4072 19.018 24.3433C19.1327 24.2795 19.259 24.2389 19.3894 24.2239C19.5199 24.2088 19.652 24.2196 19.7783 24.2557C19.9046 24.2917 20.0226 24.3522 20.1255 24.4338L22.5645 26.3688L27.7115 19.6168C27.7931 19.514 27.8942 19.4282 28.009 19.3643C28.1237 19.3005 28.25 19.2599 28.3804 19.2449C28.5109 19.2298 28.643 19.2406 28.7693 19.2767C28.8956 19.3127 29.0136 19.3732 29.1165 19.4548C29.2194 19.5365 29.3052 19.6375 29.369 19.7523C29.4328 19.8671 29.4734 19.9933 29.4885 20.1238C29.5035 20.2543 29.4927 20.3864 29.4567 20.5127C29.4206 20.639 29.3601 20.757 29.2785 20.8598L23.5105 28.3898C23.4167 28.5079 23.2975 28.6032 23.1618 28.6686C23.026 28.7341 22.8772 28.768 22.7265 28.7678Z" fill="#499E3B"/>
</g>
<defs>
<clipPath id="clip0_2160_341">
<rect width="20" height="20" fill="white" transform="translate(14 14)"/>
</clipPath>
</defs>
</svg>
