<svg width="72" height="72" viewBox="0 0 72 72" fill="none" xmlns="http://www.w3.org/2000/svg">
<g filter="url(#filter0_d_4478_12152)">
<path d="M12 32C12 18.7452 22.7452 8 36 8C49.2548 8 60 18.7452 60 32C60 45.2548 49.2548 56 36 56C22.7452 56 12 45.2548 12 32Z" fill="white"/>
<g clip-path="url(#clip0_4478_12152)">
<path d="M36 24C37.5823 24 39.129 24.4692 40.4446 25.3482C41.7602 26.2273 42.7855 27.4767 43.391 28.9385C43.9965 30.4003 44.155 32.0089 43.8463 33.5607C43.5376 35.1126 42.7757 36.538 41.6569 37.6569C40.538 38.7757 39.1126 39.5376 37.5607 39.8463C36.0089 40.155 34.4003 39.9965 32.9385 39.391C31.4767 38.7855 30.2273 37.7602 29.3482 36.4446C28.4692 35.129 28 33.5822 28 32C28.0024 29.879 28.846 27.8456 30.3458 26.3458C31.8456 24.846 33.879 24.0024 36 24ZM36 22C34.0222 22 32.0888 22.5865 30.4443 23.6853C28.7998 24.7841 27.5181 26.3459 26.7612 28.1732C26.0043 30.0004 25.8063 32.0111 26.1922 33.9509C26.578 35.8907 27.5304 37.6725 28.9289 39.0711C30.3275 40.4696 32.1093 41.422 34.0491 41.8079C35.9889 42.1937 37.9996 41.9957 39.8268 41.2388C41.6541 40.4819 43.2159 39.2002 44.3147 37.5557C45.4135 35.9112 46 33.9778 46 32C46 29.3478 44.9464 26.8043 43.0711 24.9289C41.1957 23.0536 38.6522 22 36 22V22Z" fill="#499E3B"/>
<path d="M34.7265 36.7678C34.501 36.7684 34.282 36.6922 34.1055 36.5518L30.8825 34.0008C30.7796 33.9192 30.6938 33.8181 30.63 33.7034C30.5661 33.5886 30.5255 33.4624 30.5105 33.3319C30.4954 33.2014 30.5062 33.0693 30.5423 32.943C30.5783 32.8167 30.6389 32.6987 30.7205 32.5958C30.8021 32.493 30.9032 32.4072 31.018 32.3433C31.1327 32.2795 31.259 32.2389 31.3894 32.2239C31.5199 32.2088 31.652 32.2196 31.7783 32.2557C31.9046 32.2917 32.0226 32.3522 32.1255 32.4338L34.5645 34.3688L39.7115 27.6168C39.7931 27.514 39.8942 27.4282 40.009 27.3643C40.1237 27.3005 40.25 27.2599 40.3804 27.2449C40.5109 27.2298 40.643 27.2406 40.7693 27.2767C40.8956 27.3127 41.0136 27.3732 41.1165 27.4548C41.2194 27.5365 41.3052 27.6375 41.369 27.7523C41.4328 27.8671 41.4734 27.9933 41.4885 28.1238C41.5035 28.2543 41.4927 28.3864 41.4567 28.5127C41.4206 28.639 41.3601 28.757 41.2785 28.8598L35.5105 36.3898C35.4167 36.5079 35.2975 36.6032 35.1618 36.6686C35.026 36.7341 34.8772 36.768 34.7265 36.7678Z" fill="#499E3B"/>
</g>
</g>
<defs>
<filter id="filter0_d_4478_12152" x="0" y="0" width="72" height="72" filterUnits="userSpaceOnUse" color-interpolation-filters="sRGB">
<feFlood flood-opacity="0" result="BackgroundImageFix"/>
<feColorMatrix in="SourceAlpha" type="matrix" values="0 0 0 0 0 0 0 0 0 0 0 0 0 0 0 0 0 0 127 0" result="hardAlpha"/>
<feOffset dy="4"/>
<feGaussianBlur stdDeviation="6"/>
<feComposite in2="hardAlpha" operator="out"/>
<feColorMatrix type="matrix" values="0 0 0 0 0.027451 0 0 0 0 0.027451 0 0 0 0 0.027451 0 0 0 0.12 0"/>
<feBlend mode="normal" in2="BackgroundImageFix" result="effect1_dropShadow_4478_12152"/>
<feBlend mode="normal" in="SourceGraphic" in2="effect1_dropShadow_4478_12152" result="shape"/>
</filter>
<clipPath id="clip0_4478_12152">
<rect width="20" height="20" fill="white" transform="translate(26 22)"/>
</clipPath>
</defs>
</svg>
