<svg width="72" height="72" viewBox="0 0 72 72" fill="none" xmlns="http://www.w3.org/2000/svg">
<path d="M68.8 72H3.2C2.35131 72 1.53737 71.6629 0.937258 71.0627C0.337142 70.4626 0 69.6487 0 68.8V39.2C0 38.3513 0.337142 37.5374 0.937258 36.9373C1.53737 36.3371 2.35131 36 3.2 36H4.8C5.64869 36 6.46263 36.3371 7.06274 36.9373C7.66286 37.5374 8 38.3513 8 39.2V60.8C8 61.6487 8.33714 62.4626 8.93726 63.0627C9.53738 63.6629 10.3513 64 11.2 64H60.8C61.6487 64 62.4626 63.6629 63.0627 63.0627C63.6629 62.4626 64 61.6487 64 60.8V39.2C64 38.3513 64.3371 37.5374 64.9373 36.9373C65.5374 36.3371 66.3513 36 67.2 36H68.8C69.6487 36 70.4626 36.3371 71.0627 36.9373C71.6629 37.5374 72 38.3513 72 39.2V68.8C72 69.6487 71.6629 70.4626 71.0627 71.0627C70.4626 71.6629 69.6487 72 68.8 72Z" fill="#BDBDBD"/>
<path d="M56.6563 28.8001C56.9577 28.799 57.2527 28.7128 57.5072 28.5514C57.7618 28.3901 57.9656 28.1601 58.0951 27.888C58.2247 27.6159 58.2748 27.3127 58.2396 27.0134C58.2045 26.7141 58.0855 26.4307 57.8963 26.1961L37.3843 0.800094C37.2437 0.557632 37.0418 0.356374 36.7989 0.216471C36.556 0.0765676 36.2806 0.00292969 36.0003 0.00292969C35.72 0.00292969 35.4447 0.0765676 35.2018 0.216471C34.9589 0.356374 34.757 0.557632 34.6163 0.800094L15.2883 26.2361C15.1093 26.4732 14.9999 26.7556 14.9723 27.0514C14.9446 27.3473 15 27.645 15.132 27.9112C15.2641 28.1773 15.4676 28.4015 15.7199 28.5585C15.9722 28.7155 16.2632 28.7992 16.5603 28.8001H29.0643L32.0003 51.8641C31.9862 52.8971 32.3629 53.8972 33.0549 54.6642C33.747 55.4312 34.7034 55.9084 35.7323 56.0001C36.2797 56.0368 36.8288 55.9606 37.3455 55.7761C37.8622 55.5916 38.3354 55.3028 38.7357 54.9277C39.136 54.5525 39.4548 54.099 39.6724 53.5953C39.8899 53.0917 40.0016 52.5487 40.0003 52.0001L43.2003 28.8001H56.6563Z" fill="#BDBDBD"/>
</svg>
