<svg xmlns="http://www.w3.org/2000/svg" xmlns:xlink="http://www.w3.org/1999/xlink" width="500" zoomAndPan="magnify" viewBox="0 0 375 225" height="300" preserveAspectRatio="xMidYMid meet" version="1.0"><defs><g/><clipPath id="a054ef05fa"><path d="M 10.535156 32.527344 L 47.417969 32.527344 L 47.417969 90.441406 L 10.535156 90.441406 Z M 10.535156 32.527344 " clip-rule="nonzero"/></clipPath><clipPath id="8d403907fc"><path d="M 152.304688 85.441406 L 177.515625 85.441406 L 177.515625 140.730469 L 152.304688 140.730469 Z M 152.304688 85.441406 " clip-rule="nonzero"/></clipPath><clipPath id="95cff8af8d"><path d="M 171 86 L 194.460938 86 L 194.460938 140.75 L 171 140.75 Z M 171 86 " clip-rule="nonzero"/></clipPath></defs><g clip-path="url(#a054ef05fa)"><path fill="#d4a969" d="M 37.601562 32.527344 C 40.421875 34.558594 42.042969 39.28125 39.433594 42.566406 C 37.347656 45.195312 32.898438 46.195312 29.726562 47.441406 C 26.554688 48.6875 22.652344 49.519531 20.144531 51.78125 C 17.167969 54.460938 17.714844 58.261719 19.484375 60.445312 C 21.867188 63.390625 25.933594 64.851562 30.289062 66.429688 C 37.171875 68.921875 46.53125 70.257812 47.367188 76.902344 C 47.644531 79.113281 47 83.476562 41.03125 83.847656 C 35.292969 84.207031 29.015625 84.300781 29.84375 90.441406 C 26.738281 87.121094 27.3125 80.492188 36.058594 80.632812 C 37.789062 80.660156 39.878906 80.945312 40.964844 79.632812 C 41.84375 78.574219 41.375 76.875 40.472656 75.703125 C 35.460938 69.210938 18.195312 71.210938 12.429688 63.292969 C 9.546875 59.332031 10.054688 54.292969 13.265625 50.847656 C 16.179688 47.71875 21.71875 45.871094 28.582031 44 C 31.617188 43.171875 35.054688 41.949219 36.714844 40.882812 C 40.542969 38.417969 39.273438 34.488281 37.601562 32.527344 " fill-opacity="1" fill-rule="nonzero"/></g><g fill="#6f4323" fill-opacity="1"><g transform="translate(2.25, 144.854855)"><g><path d="M 48.21875 -59.09375 C 49.675781 -59.09375 50.851562 -58.613281 51.75 -57.65625 C 52.65625 -56.695312 53.109375 -55.460938 53.109375 -53.953125 L 53.109375 -23.4375 C 53.109375 -18.769531 52.125 -14.632812 50.15625 -11.03125 C 48.1875 -7.4375 45.429688 -4.628906 41.890625 -2.609375 C 38.347656 -0.585938 34.300781 0.421875 29.75 0.421875 C 25.195312 0.421875 21.132812 -0.585938 17.5625 -2.609375 C 14 -4.628906 11.234375 -7.4375 9.265625 -11.03125 C 7.304688 -14.632812 6.328125 -18.769531 6.328125 -23.4375 L 6.328125 -53.953125 C 6.328125 -55.410156 6.832031 -56.628906 7.84375 -57.609375 C 8.851562 -58.597656 10.144531 -59.09375 11.71875 -59.09375 C 13.0625 -59.09375 14.238281 -58.597656 15.25 -57.609375 C 16.269531 -56.628906 16.78125 -55.410156 16.78125 -53.953125 L 16.78125 -23.4375 C 16.78125 -20.738281 17.367188 -18.332031 18.546875 -16.21875 C 19.722656 -14.113281 21.304688 -12.5 23.296875 -11.375 C 25.296875 -10.25 27.445312 -9.6875 29.75 -9.6875 C 32.164062 -9.6875 34.425781 -10.25 36.53125 -11.375 C 38.644531 -12.5 40.332031 -14.113281 41.59375 -16.21875 C 42.863281 -18.332031 43.5 -20.738281 43.5 -23.4375 L 43.5 -53.953125 C 43.5 -55.460938 43.921875 -56.695312 44.765625 -57.65625 C 45.609375 -58.613281 46.757812 -59.09375 48.21875 -59.09375 Z M 48.21875 -59.09375 "/></g></g></g><g fill="#6f4323" fill-opacity="1"><g transform="translate(56.087916, 131.885294)"><g><path d="M 28.828125 -45.9375 C 32.703125 -45.9375 36.210938 -44.9375 39.359375 -42.9375 C 42.515625 -40.945312 45.003906 -38.179688 46.828125 -34.640625 C 48.648438 -31.097656 49.5625 -27.082031 49.5625 -22.59375 C 49.5625 -18.09375 48.660156 -14.054688 46.859375 -10.484375 C 45.066406 -6.921875 42.609375 -4.140625 39.484375 -2.140625 C 36.367188 -0.148438 32.929688 0.84375 29.171875 0.84375 C 26.472656 0.84375 23.925781 0.296875 21.53125 -0.796875 C 19.144531 -1.890625 17.164062 -3.226562 15.59375 -4.8125 L 15.59375 11.71875 C 15.59375 13.175781 15.113281 14.394531 14.15625 15.375 C 13.207031 16.363281 12 16.859375 10.53125 16.859375 C 9.070312 16.859375 7.863281 16.378906 6.90625 15.421875 C 5.957031 14.472656 5.484375 13.238281 5.484375 11.71875 L 5.484375 -39.953125 C 5.484375 -41.421875 5.957031 -42.644531 6.90625 -43.625 C 7.863281 -44.601562 9.070312 -45.09375 10.53125 -45.09375 C 12 -45.09375 13.207031 -44.601562 14.15625 -43.625 C 15.113281 -42.644531 15.59375 -41.421875 15.59375 -39.953125 L 15.59375 -39.625 C 16.945312 -41.3125 18.832031 -42.785156 21.25 -44.046875 C 23.664062 -45.304688 26.191406 -45.9375 28.828125 -45.9375 Z M 27.5625 -8.4375 C 31.15625 -8.4375 34.101562 -9.78125 36.40625 -12.46875 C 38.71875 -15.164062 39.875 -18.539062 39.875 -22.59375 C 39.875 -26.632812 38.734375 -29.988281 36.453125 -32.65625 C 34.179688 -35.332031 31.21875 -36.671875 27.5625 -36.671875 C 23.90625 -36.671875 20.925781 -35.332031 18.625 -32.65625 C 16.320312 -29.988281 15.171875 -26.632812 15.171875 -22.59375 C 15.171875 -18.539062 16.320312 -15.164062 18.625 -12.46875 C 20.925781 -9.78125 23.90625 -8.4375 27.5625 -8.4375 Z M 27.5625 -8.4375 "/></g></g></g><g fill="#6f4323" fill-opacity="1"><g transform="translate(109.338847, 167.452798)"><g><path d="M 59.640625 -109.078125 C 70.984375 -109.078125 80.125 -107.304688 87.0625 -103.765625 C 94 -100.234375 97.46875 -95.53125 97.46875 -89.65625 C 97.46875 -86.726562 96.597656 -84.160156 94.859375 -81.953125 C 93.128906 -79.753906 90.863281 -78.65625 88.0625 -78.65625 C 85.925781 -78.65625 84.191406 -78.953125 82.859375 -79.546875 C 81.523438 -80.148438 80.222656 -80.953125 78.953125 -81.953125 C 77.679688 -82.953125 76.445312 -83.785156 75.25 -84.453125 C 73.914062 -85.117188 71.945312 -85.71875 69.34375 -86.25 C 66.75 -86.789062 64.648438 -87.0625 63.046875 -87.0625 C 53.035156 -87.0625 45.191406 -83.957031 39.515625 -77.75 C 33.847656 -71.550781 31.015625 -63.445312 31.015625 -53.4375 C 31.015625 -43.832031 33.882812 -35.859375 39.625 -29.515625 C 45.363281 -23.179688 52.703125 -20.015625 61.640625 -20.015625 C 68.179688 -20.015625 73.050781 -20.816406 76.25 -22.421875 C 77.050781 -22.816406 78.148438 -23.515625 79.546875 -24.515625 C 80.953125 -25.515625 82.253906 -26.28125 83.453125 -26.8125 C 84.660156 -27.351562 86.128906 -27.625 87.859375 -27.625 C 91.191406 -27.625 93.828125 -26.554688 95.765625 -24.421875 C 97.703125 -22.285156 98.671875 -19.550781 98.671875 -16.21875 C 98.671875 -13.007812 96.800781 -10.003906 93.0625 -7.203125 C 89.332031 -4.398438 84.394531 -2.164062 78.25 -0.5 C 72.113281 1.164062 65.578125 2 58.640625 2 C 48.367188 2 39.328125 -0.398438 31.515625 -5.203125 C 23.710938 -10.003906 17.675781 -16.640625 13.40625 -25.109375 C 9.132812 -33.585938 7 -43.03125 7 -53.4375 C 7 -64.25 9.234375 -73.851562 13.703125 -82.25 C 18.179688 -90.65625 24.421875 -97.226562 32.421875 -101.96875 C 40.429688 -106.707031 49.503906 -109.078125 59.640625 -109.078125 Z M 59.640625 -109.078125 "/></g></g></g><g fill="#d4a969" fill-opacity="1"><g transform="translate(150.724667, 141.850878)"><g/></g></g><g fill="#d4a969" fill-opacity="1"><g transform="translate(174.328614, 141.850878)"><g/></g></g><g fill="#d4a969" fill-opacity="1"><g transform="translate(197.925711, 141.850878)"><g><path d="M 27.140625 -53.4375 C 25.234375 -53.4375 23.882812 -52.890625 23.09375 -51.796875 C 22.3125 -50.703125 21.921875 -49.507812 21.921875 -48.21875 L 21.921875 -44.25 L 29.59375 -44.25 C 30.9375 -44.25 32.054688 -43.8125 32.953125 -42.9375 C 33.859375 -42.070312 34.3125 -40.96875 34.3125 -39.625 C 34.3125 -38.269531 33.859375 -37.15625 32.953125 -36.28125 C 32.054688 -35.414062 30.9375 -34.984375 29.59375 -34.984375 L 21.921875 -34.984375 L 21.921875 -5.140625 C 21.921875 -3.679688 21.441406 -2.457031 20.484375 -1.46875 C 19.523438 -0.488281 18.316406 0 16.859375 0 C 15.398438 0 14.191406 -0.488281 13.234375 -1.46875 C 12.273438 -2.457031 11.796875 -3.679688 11.796875 -5.140625 L 11.796875 -34.984375 L 7.25 -34.984375 C 5.894531 -34.984375 4.769531 -35.414062 3.875 -36.28125 C 2.976562 -37.15625 2.53125 -38.269531 2.53125 -39.625 C 2.53125 -40.96875 2.976562 -42.070312 3.875 -42.9375 C 4.769531 -43.8125 5.894531 -44.25 7.25 -44.25 L 11.796875 -44.25 L 11.796875 -48.140625 C 11.796875 -52.347656 13.242188 -55.769531 16.140625 -58.40625 C 19.035156 -61.050781 23.207031 -62.375 28.65625 -62.375 C 30.738281 -62.375 32.550781 -61.953125 34.09375 -61.109375 C 35.644531 -60.265625 36.421875 -58.972656 36.421875 -57.234375 C 36.421875 -55.890625 36.023438 -54.796875 35.234375 -53.953125 C 34.453125 -53.109375 33.5 -52.6875 32.375 -52.6875 C 32.09375 -52.6875 31.796875 -52.710938 31.484375 -52.765625 C 31.171875 -52.828125 30.847656 -52.882812 30.515625 -52.9375 C 29.171875 -53.269531 28.046875 -53.4375 27.140625 -53.4375 Z M 27.140625 -53.4375 "/></g></g></g><g fill="#d4a969" fill-opacity="1"><g transform="translate(233.078726, 141.850878)"><g><path d="M 27.140625 -53.4375 C 25.234375 -53.4375 23.882812 -52.890625 23.09375 -51.796875 C 22.3125 -50.703125 21.921875 -49.507812 21.921875 -48.21875 L 21.921875 -44.25 L 29.59375 -44.25 C 30.9375 -44.25 32.054688 -43.8125 32.953125 -42.9375 C 33.859375 -42.070312 34.3125 -40.96875 34.3125 -39.625 C 34.3125 -38.269531 33.859375 -37.15625 32.953125 -36.28125 C 32.054688 -35.414062 30.9375 -34.984375 29.59375 -34.984375 L 21.921875 -34.984375 L 21.921875 -5.140625 C 21.921875 -3.679688 21.441406 -2.457031 20.484375 -1.46875 C 19.523438 -0.488281 18.316406 0 16.859375 0 C 15.398438 0 14.191406 -0.488281 13.234375 -1.46875 C 12.273438 -2.457031 11.796875 -3.679688 11.796875 -5.140625 L 11.796875 -34.984375 L 7.25 -34.984375 C 5.894531 -34.984375 4.769531 -35.414062 3.875 -36.28125 C 2.976562 -37.15625 2.53125 -38.269531 2.53125 -39.625 C 2.53125 -40.96875 2.976562 -42.070312 3.875 -42.9375 C 4.769531 -43.8125 5.894531 -44.25 7.25 -44.25 L 11.796875 -44.25 L 11.796875 -48.140625 C 11.796875 -52.347656 13.242188 -55.769531 16.140625 -58.40625 C 19.035156 -61.050781 23.207031 -62.375 28.65625 -62.375 C 30.738281 -62.375 32.550781 -61.953125 34.09375 -61.109375 C 35.644531 -60.265625 36.421875 -58.972656 36.421875 -57.234375 C 36.421875 -55.890625 36.023438 -54.796875 35.234375 -53.953125 C 34.453125 -53.109375 33.5 -52.6875 32.375 -52.6875 C 32.09375 -52.6875 31.796875 -52.710938 31.484375 -52.765625 C 31.171875 -52.828125 30.847656 -52.882812 30.515625 -52.9375 C 29.171875 -53.269531 28.046875 -53.4375 27.140625 -53.4375 Z M 27.140625 -53.4375 "/></g></g></g><g fill="#d4a969" fill-opacity="1"><g transform="translate(268.231742, 141.850878)"><g><path d="M 45.9375 -23.609375 C 45.882812 -22.253906 45.351562 -21.15625 44.34375 -20.3125 C 43.332031 -19.46875 42.148438 -19.046875 40.796875 -19.046875 L 12.984375 -19.046875 C 13.660156 -15.734375 15.207031 -13.132812 17.625 -11.25 C 20.039062 -9.375 22.765625 -8.4375 25.796875 -8.4375 C 28.097656 -8.4375 29.894531 -8.644531 31.1875 -9.0625 C 32.476562 -9.476562 33.503906 -9.925781 34.265625 -10.40625 C 35.023438 -10.882812 35.546875 -11.207031 35.828125 -11.375 C 36.835938 -11.882812 37.789062 -12.140625 38.6875 -12.140625 C 39.875 -12.140625 40.882812 -11.71875 41.71875 -10.875 C 42.5625 -10.03125 42.984375 -9.046875 42.984375 -7.921875 C 42.984375 -6.398438 42.195312 -5.023438 40.625 -3.796875 C 39.050781 -2.503906 36.941406 -1.40625 34.296875 -0.5 C 31.660156 0.394531 28.992188 0.84375 26.296875 0.84375 C 21.578125 0.84375 17.460938 -0.140625 13.953125 -2.109375 C 10.441406 -4.078125 7.726562 -6.785156 5.8125 -10.234375 C 3.90625 -13.691406 2.953125 -17.585938 2.953125 -21.921875 C 2.953125 -26.753906 3.960938 -30.992188 5.984375 -34.640625 C 8.003906 -38.296875 10.671875 -41.09375 13.984375 -43.03125 C 17.304688 -44.96875 20.847656 -45.9375 24.609375 -45.9375 C 28.316406 -45.9375 31.816406 -44.925781 35.109375 -42.90625 C 38.398438 -40.882812 41.023438 -38.160156 42.984375 -34.734375 C 44.953125 -31.304688 45.9375 -27.597656 45.9375 -23.609375 Z M 24.609375 -36.671875 C 18.097656 -36.671875 14.25 -33.609375 13.0625 -27.484375 L 35.15625 -27.484375 L 35.15625 -28.078125 C 34.925781 -30.429688 33.769531 -32.453125 31.6875 -34.140625 C 29.613281 -35.828125 27.253906 -36.671875 24.609375 -36.671875 Z M 24.609375 -36.671875 "/></g></g></g><g fill="#d4a969" fill-opacity="1"><g transform="translate(317.125629, 141.850878)"><g><path d="M 45.9375 -23.609375 C 45.882812 -22.253906 45.351562 -21.15625 44.34375 -20.3125 C 43.332031 -19.46875 42.148438 -19.046875 40.796875 -19.046875 L 12.984375 -19.046875 C 13.660156 -15.734375 15.207031 -13.132812 17.625 -11.25 C 20.039062 -9.375 22.765625 -8.4375 25.796875 -8.4375 C 28.097656 -8.4375 29.894531 -8.644531 31.1875 -9.0625 C 32.476562 -9.476562 33.503906 -9.925781 34.265625 -10.40625 C 35.023438 -10.882812 35.546875 -11.207031 35.828125 -11.375 C 36.835938 -11.882812 37.789062 -12.140625 38.6875 -12.140625 C 39.875 -12.140625 40.882812 -11.71875 41.71875 -10.875 C 42.5625 -10.03125 42.984375 -9.046875 42.984375 -7.921875 C 42.984375 -6.398438 42.195312 -5.023438 40.625 -3.796875 C 39.050781 -2.503906 36.941406 -1.40625 34.296875 -0.5 C 31.660156 0.394531 28.992188 0.84375 26.296875 0.84375 C 21.578125 0.84375 17.460938 -0.140625 13.953125 -2.109375 C 10.441406 -4.078125 7.726562 -6.785156 5.8125 -10.234375 C 3.90625 -13.691406 2.953125 -17.585938 2.953125 -21.921875 C 2.953125 -26.753906 3.960938 -30.992188 5.984375 -34.640625 C 8.003906 -38.296875 10.671875 -41.09375 13.984375 -43.03125 C 17.304688 -44.96875 20.847656 -45.9375 24.609375 -45.9375 C 28.316406 -45.9375 31.816406 -44.925781 35.109375 -42.90625 C 38.398438 -40.882812 41.023438 -38.160156 42.984375 -34.734375 C 44.953125 -31.304688 45.9375 -27.597656 45.9375 -23.609375 Z M 24.609375 -36.671875 C 18.097656 -36.671875 14.25 -33.609375 13.0625 -27.484375 L 35.15625 -27.484375 L 35.15625 -28.078125 C 34.925781 -30.429688 33.769531 -32.453125 31.6875 -34.140625 C 29.613281 -35.828125 27.253906 -36.671875 24.609375 -36.671875 Z M 24.609375 -36.671875 "/></g></g></g><g clip-path="url(#8d403907fc)"><path fill="#d4a969" d="M 174.96875 137.066406 C 174.816406 138.042969 174.46875 138.976562 173.953125 139.828125 C 173.949219 139.835938 173.945312 139.839844 173.945312 139.84375 C 173.574219 140.460938 172.894531 140.8125 172.097656 140.714844 C 161.671875 139.429688 152.304688 127.101562 152.304688 112.675781 C 152.304688 97.386719 161.070312 86.1875 173.984375 85.453125 C 175 85.398438 176.003906 85.554688 176.984375 85.75 C 177.464844 85.84375 177.660156 86.347656 177.347656 86.683594 C 170.675781 93.960938 166.851562 100.410156 167.546875 109.367188 C 167.796875 112.574219 168.980469 116.558594 170.457031 120.355469 C 171.824219 123.929688 176.046875 130.203125 174.96875 137.066406 " fill-opacity="1" fill-rule="nonzero"/></g><g clip-path="url(#95cff8af8d)"><path fill="#d4a969" d="M 194.460938 113.144531 C 194.460938 126.261719 187.714844 137.253906 178.648438 140.109375 C 177.480469 140.476562 176.351562 139.460938 176.625 138.308594 C 177.097656 136.308594 177.398438 134.257812 177.324219 132.1875 C 176.933594 121.398438 171.792969 117.980469 171.203125 110.890625 C 170.652344 104.289062 171.441406 98.121094 176.867188 89.871094 C 177.457031 88.976562 178.152344 88.144531 178.933594 87.398438 C 179.292969 86.863281 180.0625 86.683594 180.683594 86.972656 C 188.703125 90.722656 194.460938 101.027344 194.460938 113.144531 " fill-opacity="1" fill-rule="nonzero"/></g></svg>